HIERARCHY
ROOT Hips
{
    OFFSET 0.000000 97.120003 0.000000
    CHANNELS 6 Xposition Yposition Zposition Yrotation Xrotation Zrotation
    JOINT RightUpLeg
    {
        OFFSET -11.000000 -0.000000 0.000000
        CHANNELS 3 Yrotation Xrotation Zrotation
        JOINT RightLeg
        {
            OFFSET 0.000000 -45.062000 0.000000
            CHANNELS 3 Yrotation Xrotation Zrotation
            JOINT RightFoot
            {
                OFFSET 0.000000 -42.057999 0.000000
                CHANNELS 3 Yrotation Xrotation Zrotation
                End Site
                {
                    OFFSET 0.000000 -10.000000 15.120000
                }
            }
        }
    }
    JOINT LeftUpLeg
    {
        OFFSET 11.000000 -0.000000 0.000000
        CHANNELS 3 Yrotation Xrotation Zrotation
        JOINT LeftLeg
        {
            OFFSET 0.000000 -45.062000 0.000000
            CHANNELS 3 Yrotation Xrotation Zrotation
            JOINT LeftFoot
            {
                OFFSET 0.000000 -42.057999 0.000000
                CHANNELS 3 Yrotation Xrotation Zrotation
                End Site
                {
                    OFFSET 0.000000 -10.000000 15.120000
                }
            }
        }
    }
    JOINT Spine
    {
        OFFSET 0.000000 8.120000 0.000000
        CHANNELS 3 Yrotation Xrotation Zrotation
        JOINT Spine1
        {
            OFFSET 0.000000 17.980000 0.000000
            CHANNELS 3 Yrotation Xrotation Zrotation
            JOINT Spine2
            {
                OFFSET 0.000000 12.760000 0.000000
                CHANNELS 3 Yrotation Xrotation Zrotation
                JOINT Neck
                {
                    OFFSET 0.000000 19.139999 0.000000
                    CHANNELS 3 Yrotation Xrotation Zrotation
                    JOINT Neck1
                    {
                        OFFSET 0.000000 4.250000 0.000000
                        CHANNELS 3 Yrotation Xrotation Zrotation
                        JOINT Head
                        {
                            OFFSET 0.000000 4.250000 0.000000
                            CHANNELS 3 Yrotation Xrotation Zrotation
                            End Site
                            {
                                OFFSET 0.000000 19.120001 0.000000
                            }
                        }
                    }
                }
                JOINT RightShoulder
                {
                    OFFSET -2.900000 13.340000 0.000000
                    CHANNELS 3 Yrotation Xrotation Zrotation
                    JOINT RightArm
                    {
                        OFFSET -16.100000 0.000000 0.000000
                        CHANNELS 3 Yrotation Xrotation Zrotation
                        JOINT RightForeArm
                        {
                            OFFSET -28.000000 0.000000 0.000000
                            CHANNELS 3 Yrotation Xrotation Zrotation
                            JOINT RightHand
                            {
                                OFFSET -26.000000 0.000000 0.000000
                                CHANNELS 3 Yrotation Xrotation Zrotation
                                JOINT RightHandThumb1
                                {
                                    OFFSET -1.937000 -0.484000 2.518000
                                    CHANNELS 3 Yrotation Xrotation Zrotation
                                    JOINT RightHandThumb2
                                    {
                                        OFFSET -3.872000 0.000000 0.000000
                                        CHANNELS 3 Yrotation Xrotation Zrotation
                                        JOINT RightHandThumb3
                                        {
                                            OFFSET -2.690000 0.000000 0.000000
                                            CHANNELS 3 Yrotation Xrotation Zrotation
                                            End Site
                                            {
                                                OFFSET -2.537000 0.000000 0.000000
                                            }
                                        }
                                    }
                                }
                                JOINT RightInHandIndex
                                {
                                    OFFSET -3.389000 0.535000 2.080000
                                    CHANNELS 3 Yrotation Xrotation Zrotation
                                    JOINT RightHandIndex1
                                    {
                                        OFFSET -5.485000 -0.096000 1.051000
                                        CHANNELS 3 Yrotation Xrotation Zrotation
                                        JOINT RightHandIndex2
                                        {
                                            OFFSET -3.806000 0.000000 0.000000
                                            CHANNELS 3 Yrotation Xrotation Zrotation
                                            JOINT RightHandIndex3
                                            {
                                                OFFSET -2.158000 0.000000 0.000000
                                                CHANNELS 3 Yrotation Xrotation Zrotation
                                                End Site
                                                {
                                                    OFFSET -1.898000 0.000000 0.000000
                                                }
                                            }
                                        }
                                    }
                                }
                                JOINT RightInHandMiddle
                                {
                                    OFFSET -3.556000 0.544000 0.796000
                                    CHANNELS 3 Yrotation Xrotation Zrotation
                                    JOINT RightHandMiddle1
                                    {
                                        OFFSET -5.441000 -0.088000 0.330000
                                        CHANNELS 3 Yrotation Xrotation Zrotation
                                        JOINT RightHandMiddle2
                                        {
                                            OFFSET -4.153000 0.000000 0.000000
                                            CHANNELS 3 Yrotation Xrotation Zrotation
                                            JOINT RightHandMiddle3
                                            {
                                                OFFSET -2.603000 0.000000 0.000000
                                                CHANNELS 3 Yrotation Xrotation Zrotation
                                                End Site
                                                {
                                                    OFFSET -2.076000 0.000000 0.000000
                                                }
                                            }
                                        }
                                    }
                                }
                                JOINT RightInHandRing
                                {
                                    OFFSET -3.539000 0.566000 -0.136000
                                    CHANNELS 3 Yrotation Xrotation Zrotation
                                    JOINT RightHandRing1
                                    {
                                        OFFSET -4.873000 -0.023000 -0.504000
                                        CHANNELS 3 Yrotation Xrotation Zrotation
                                        JOINT RightHandRing2
                                        {
                                            OFFSET -3.619000 0.000000 0.000000
                                            CHANNELS 3 Yrotation Xrotation Zrotation
                                            JOINT RightHandRing3
                                            {
                                                OFFSET -2.511000 0.000000 0.000000
                                                CHANNELS 3 Yrotation Xrotation Zrotation
                                                End Site
                                                {
                                                    OFFSET -1.952000 0.000000 0.000000
                                                }
                                            }
                                        }
                                    }
                                }
                                JOINT RightInHandPinky
                                {
                                    OFFSET -3.324000 0.494000 -1.264000
                                    CHANNELS 3 Yrotation Xrotation Zrotation
                                    JOINT RightHandPinky1
                                    {
                                        OFFSET -4.354000 -0.023000 -1.147000
                                        CHANNELS 3 Yrotation Xrotation Zrotation
                                        JOINT RightHandPinky2
                                        {
                                            OFFSET -2.898000 0.000000 0.000000
                                            CHANNELS 3 Yrotation Xrotation Zrotation
                                            JOINT RightHandPinky3
                                            {
                                                OFFSET -1.831000 0.000000 0.000000
                                                CHANNELS 3 Yrotation Xrotation Zrotation
                                                End Site
                                                {
                                                    OFFSET -1.730000 0.000000 0.000000
                                                }
                                            }
                                        }
                                    }
                                }
                            }
                        }
                    }
                }
                JOINT LeftShoulder
                {
                    OFFSET 2.900000 13.340000 0.000000
                    CHANNELS 3 Yrotation Xrotation Zrotation
                    JOINT LeftArm
                    {
                        OFFSET 16.100000 0.000000 0.000000
                        CHANNELS 3 Yrotation Xrotation Zrotation
                        JOINT LeftForeArm
                        {
                            OFFSET 28.000000 0.000000 0.000000
                            CHANNELS 3 Yrotation Xrotation Zrotation
                            JOINT LeftHand
                            {
                                OFFSET 26.000000 0.000000 0.000000
                                CHANNELS 3 Yrotation Xrotation Zrotation
                                JOINT LeftHandThumb1
                                {
                                    OFFSET 1.937000 -0.484000 2.518000
                                    CHANNELS 3 Yrotation Xrotation Zrotation
                                    JOINT LeftHandThumb2
                                    {
                                        OFFSET 3.872000 0.000000 0.000000
                                        CHANNELS 3 Yrotation Xrotation Zrotation
                                        JOINT LeftHandThumb3
                                        {
                                            OFFSET 2.690000 0.000000 0.000000
                                            CHANNELS 3 Yrotation Xrotation Zrotation
                                            End Site
                                            {
                                                OFFSET 2.537000 0.000000 0.000000
                                            }
                                        }
                                    }
                                }
                                JOINT LeftInHandIndex
                                {
                                    OFFSET 3.389000 0.535000 2.080000
                                    CHANNELS 3 Yrotation Xrotation Zrotation
                                    JOINT LeftHandIndex1
                                    {
                                        OFFSET 5.485000 -0.096000 1.051000
                                        CHANNELS 3 Yrotation Xrotation Zrotation
                                        JOINT LeftHandIndex2
                                        {
                                            OFFSET 3.806000 0.000000 0.000000
                                            CHANNELS 3 Yrotation Xrotation Zrotation
                                            JOINT LeftHandIndex3
                                            {
                                                OFFSET 2.158000 0.000000 0.000000
                                                CHANNELS 3 Yrotation Xrotation Zrotation
                                                End Site
                                                {
                                                    OFFSET 1.898000 0.000000 0.000000
                                                }
                                            }
                                        }
                                    }
                                }
                                JOINT LeftInHandMiddle
                                {
                                    OFFSET 3.556000 0.544000 0.796000
                                    CHANNELS 3 Yrotation Xrotation Zrotation
                                    JOINT LeftHandMiddle1
                                    {
                                        OFFSET 5.441000 -0.088000 0.330000
                                        CHANNELS 3 Yrotation Xrotation Zrotation
                                        JOINT LeftHandMiddle2
                                        {
                                            OFFSET 4.153000 0.000000 0.000000
                                            CHANNELS 3 Yrotation Xrotation Zrotation
                                            JOINT LeftHandMiddle3
                                            {
                                                OFFSET 2.603000 0.000000 0.000000
                                                CHANNELS 3 Yrotation Xrotation Zrotation
                                                End Site
                                                {
                                                    OFFSET 2.076000 0.000000 0.000000
                                                }
                                            }
                                        }
                                    }
                                }
                                JOINT LeftInHandRing
                                {
                                    OFFSET 3.539000 0.566000 -0.136000
                                    CHANNELS 3 Yrotation Xrotation Zrotation
                                    JOINT LeftHandRing1
                                    {
                                        OFFSET 4.873000 -0.023000 -0.504000
                                        CHANNELS 3 Yrotation Xrotation Zrotation
                                        JOINT LeftHandRing2
                                        {
                                            OFFSET 3.619000 0.000000 0.000000
                                            CHANNELS 3 Yrotation Xrotation Zrotation
                                            JOINT LeftHandRing3
                                            {
                                                OFFSET 2.511000 0.000000 0.000000
                                                CHANNELS 3 Yrotation Xrotation Zrotation
                                                End Site
                                                {
                                                    OFFSET 1.952000 0.000000 0.000000
                                                }
                                            }
                                        }
                                    }
                                }
                                JOINT LeftInHandPinky
                                {
                                    OFFSET 3.324000 0.494000 -1.264000
                                    CHANNELS 3 Yrotation Xrotation Zrotation
                                    JOINT LeftHandPinky1
                                    {
                                        OFFSET 4.354000 -0.023000 -1.147000
                                        CHANNELS 3 Yrotation Xrotation Zrotation
                                        JOINT LeftHandPinky2
                                        {
                                            OFFSET 2.898000 0.000000 0.000000
                                            CHANNELS 3 Yrotation Xrotation Zrotation
                                            JOINT LeftHandPinky3
                                            {
                                                OFFSET 1.831000 0.000000 0.000000
                                                CHANNELS 3 Yrotation Xrotation Zrotation
                                                End Site
                                                {
                                                    OFFSET 1.730000 0.000000 0.000000
                                                }
                                            }
                                        }
                                    }
                                }
                            }
                        }
                    }
                }
            }
        }
    }
}
MOTION
Frames: 4
Frame Time: 0.011111
0.000000 97.119995 0.000000 0.000000 0.000000 0.000000 0.000000 0.000000 0.000000 0.000000 0.000000 0.000000 0.000000 0.000000 0.000000 0.000000 0.000000 0.000000 0.000000 0.000000 0.000000 0.000000 0.000000 0.000000 0.000000 0.000000 0.000000 0.000000 0.000000 0.000000 0.000000 0.000000 0.000000 0.000000 0.000000 0.000000 0.000000 0.000000 0.000000 0.000000 0.000000 0.000000 0.000000 0.000000 0.000000 0.000000 0.000000 0.000000 0.000000 0.000000 0.000000 0.000000 0.000000 0.000000 0.000000 0.000000 0.000000 0.000000 0.000000 0.000000 0.000000 0.000000 0.000000 0.000000 0.000000 0.000000 0.000000 0.000000 0.000000 0.000000 0.000000 0.000000 0.000000 0.000000 0.000000 0.000000 0.000000 0.000000 0.000000 0.000000 0.000000 0.000000 0.000000 0.000000 0.000000 0.000000 0.000000 0.000000 0.000000 0.000000 0.000000 0.000000 0.000000 0.000000 0.000000 0.000000 0.000000 0.000000 0.000000 0.000000 0.000000 0.000000 0.000000 0.000000 0.000000 0.000000 0.000000 0.000000 0.000000 0.000000 0.000000 0.000000 0.000000 0.000000 0.000000 0.000000 0.000000 0.000000 0.000000 0.000000 0.000000 0.000000 0.000000 0.000000 0.000000 0.000000 0.000000 0.000000 0.000000 0.000000 0.000000 0.000000 0.000000 0.000000 0.000000 0.000000 0.000000 0.000000 0.000000 0.000000 0.000000 0.000000 0.000000 0.000000 0.000000 0.000000 0.000000 0.000000 0.000000 0.000000 0.000000 0.000000 0.000000 0.000000 0.000000 0.000000 0.000000 0.000000 0.000000 0.000000 0.000000 0.000000 0.000000 0.000000 0.000000 0.000000 0.000000 0.000000 0.000000 0.000000 0.000000 0.000000 0.000000 0.000000 0.000000 0.000000 0.000000 0.000000 0.000000 0.000000
2.304968 97.108337 -0.530223 89.253746 -176.510986 179.853989 0.248265 5.805557 -0.892820 176.761627 179.250412 -179.925385 0.579068 -4.447035 -0.268154 11.021812 3.901098 3.321831 171.447754 178.301010 179.662796 179.154099 -176.532593 176.632904 0.496757 4.080706 0.107984 0.496935 4.001818 0.155824 2.305539 2.887325 0.359224 0.000010 -4.012675 0.457195 0.000003 -4.681480 0.473532 172.099457 -176.617538 -179.245102 7.891748 0.371740 -0.084606 21.425102 -8.593924 78.616936 177.820419 -174.551483 -178.845245 176.144363 178.381958 175.397354 47.610756 39.117764 7.825200 0.000009 -0.000011 9.113754 0.000008 -0.000004 6.069737 180.000000 180.000000 179.999985 15.000010 0.000006 30.556341 0.000001 0.000007 25.000654 180.000000 180.000000 -162.499542 180.000000 180.000000 179.999985 0.000003 -0.000008 36.058502 0.000006 -0.000005 36.058495 180.000000 179.999985 -155.985031 180.000000 180.000000 179.999985 170.000000 -180.000000 -146.276077 0.000001 0.000005 33.723911 180.000000 -179.999985 -157.539871 180.000000 180.000000 179.999985 160.000015 -180.000000 -160.481216 0.000006 -0.000005 29.278166 180.000000 179.999985 -160.500748 176.041534 -178.150711 179.478500 164.867432 -170.995941 98.570999 0.513506 2.708132 0.309481 9.852386 8.603855 0.649703 124.314117 127.024864 162.931259 179.999985 -179.999985 173.683456 179.999985 -179.999985 175.793182 180.000000 -179.999985 -179.999985 165.000015 -179.999985 154.188812 180.000000 179.999985 158.881790 0.000003 0.000004 -14.782778 180.000000 -179.999985 -179.999985 0.000021 -0.000012 -32.067196 0.000011 0.000000 -32.067211 0.000008 -0.000007 -21.356745 180.000000 -179.999985 -179.999985 10.000054 -0.000009 -30.669138 0.000047 -0.000035 -30.669127 0.000022 -0.000024 -20.425652 180.000000 -179.999985 -179.999985 20.000057 -0.000025 -24.282162 0.000087 -0.000052 -36.423283 0.000039 -0.000068 -24.257872
2.312206 97.107002 -0.526513 89.247147 -176.496063 179.853012 0.241472 5.811196 -0.896240 176.772308 179.241119 -179.923401 0.581985 -4.447114 -0.267220 11.008070 3.894588 3.318522 171.440414 178.261459 179.662369 179.182281 -176.511932 176.641876 0.499197 4.092533 0.109029 0.500385 4.013390 0.158105 2.321568 2.895404 0.363756 179.999985 -175.964661 -179.559219 0.000030 -4.707883 0.456504 172.103882 -176.596680 -179.252701 7.891979 0.371729 -0.101565 21.429800 -8.606656 78.641548 177.811951 -174.578232 -178.849808 176.138504 178.376648 175.399963 47.682465 39.147160 7.958385 180.000000 180.000000 -170.861755 180.000000 179.999985 -173.913940 0.000002 -0.000000 0.000000 15.000009 0.000010 30.561825 0.000006 -0.000005 25.005117 180.000000 179.999985 -162.496414 0.000002 -0.000000 0.000000 0.000012 0.000009 36.059181 0.000002 -0.000006 36.059196 179.999985 179.999985 -155.984573 0.000002 -0.000000 0.000000 170.000000 179.999985 -146.280609 0.000003 -0.000014 33.719379 179.999985 179.999985 -157.542892 0.000002 -0.000000 0.000000 160.000015 -179.999985 -160.478348 0.000012 -0.000007 29.282495 179.999985 -180.000000 -160.497849 176.021393 -178.137009 179.509445 164.876495 -170.984741 98.532982 0.521326 2.777190 0.332958 9.876227 8.830868 0.762357 124.324348 127.062241 162.947800 179.999985 -179.999985 173.679306 179.999985 179.999985 175.790436 0.000000 -0.000000 0.000000 165.000031 -179.999985 154.180573 0.000033 -0.000018 -21.124987 0.000022 -0.000008 -14.787480 0.000000 -0.000000 0.000000 0.000036 0.000005 -32.068039 0.000033 -0.000017 -32.068024 179.999985 -179.999969 158.642700 0.000000 -0.000000 0.000000 10.000051 0.000005 -30.654402 0.000026 -0.000025 -30.654408 0.000013 -0.000032 -20.415825 0.000000 -0.000000 0.000000 20.000019 -0.000000 -24.255436 0.000056 -0.000034 -36.383163 0.000013 -0.000043 -24.231188
2.319348 97.106956 -0.522066 89.240120 -176.480637 179.851471 0.231220 5.817363 -0.898869 176.786697 179.233139 -179.923218 0.584996 -4.446012 -0.265005 10.995886 3.892867 3.313419 171.432114 178.230316 179.667191 179.210495 -176.497955 176.644608 0.502073 4.103117 0.109744 0.503774 4.023758 0.159586 2.337071 2.902650 0.367152 0.000009 -4.069374 0.416827 179.999985 -175.252396 -179.568268 172.138077 -176.565048 -179.265305 7.891647 0.374557 -0.115452 21.443657 -8.619795 78.665688 177.798386 -174.603958 -178.853912 176.135117 178.377197 175.402817 47.682964 39.150490 7.958133 0.000002 -0.000002 9.136916 0.000002 -0.000002 6.085193 0.000000 -0.000002 0.000000 15.000000 -0.000003 30.543982 0.000004 0.000016 24.990507 0.000011 0.000001 17.493361 0.000000 -0.000002 0.000000 179.999985 -179.999985 -143.941284 179.999985 179.999985 -143.941284 180.000000 180.000000 -155.984909 0.000000 -0.000002 0.000000 170.000000 179.999985 -146.276611 180.000000 179.999985 -146.276627 0.000012 -0.000010 22.459755 0.000000 -0.000002 0.000000 160.000000 179.999985 -160.474838 0.000002 -0.000000 29.287710 0.000006 -0.000006 19.505617 175.999435 -178.124802 179.530655 164.891663 -170.973709 98.521622 0.536438 2.917438 0.358493 9.888220 8.979569 0.835414 124.302582 127.049294 162.910187 179.999985 179.999985 173.674454 180.000000 -180.000000 175.787186 0.000002 -0.000000 0.000000 165.000046 -179.999985 154.187973 0.000026 -0.000008 -21.118921 0.000015 -0.000011 -14.783241 0.000002 -0.000000 0.000000 0.000005 -0.000000 -32.052258 0.000010 -0.000009 -32.052250 0.000010 0.000000 -21.346794 0.000002 -0.000000 0.000000 10.000028 -0.000012 -30.637325 0.000030 -0.000004 -30.637342 0.000012 -0.000010 -20.404457 0.000002 -0.000000 0.000000 20.000044 -0.000003 -24.246765 0.000057 -0.000041 -36.370163 0.000010 -0.000047 -24.222517
